<svg width="118" height="24" viewBox="0 0 118 24" fill="none" xmlns="http://www.w3.org/2000/svg">
<path d="M37.8796 19.3901C37.2848 19.4223 36.6965 19.2532 36.2096 18.9101C35.7966 18.6039 35.5609 18.1139 35.5796 17.6001V8.33006C35.5698 8.25053 35.5971 8.1709 35.6538 8.11424C35.7105 8.05758 35.7901 8.03021 35.8696 8.04006H37.5496C37.7396 8.04006 37.8296 8.14006 37.8296 8.33006V16.8801C37.8296 17.2601 37.9996 17.4501 38.3496 17.4501C38.498 17.4562 38.6464 17.4393 38.7896 17.4001C38.9896 17.4001 39.0996 17.4601 39.1096 17.6401L39.2596 18.8901C39.2742 18.9638 39.2562 19.0402 39.2101 19.0997C39.1641 19.1591 39.0946 19.1957 39.0196 19.2001C38.6516 19.3216 38.2671 19.3857 37.8796 19.3901Z" fill="#696871"/>
<path fill-rule="evenodd" clip-rule="evenodd" d="M41.3296 18.32C43.0709 19.7587 45.5883 19.7587 47.3296 18.32V18.31C48.8357 16.7394 48.8357 14.2607 47.3296 12.69C45.5855 11.2592 43.0737 11.2592 41.3296 12.69C39.7853 14.249 39.7853 16.7611 41.3296 18.32ZM45.7696 17C44.958 17.7352 43.7212 17.7352 42.9096 17C42.1765 16.1571 42.1765 14.9029 42.9096 14.06C43.7212 13.3249 44.958 13.3249 45.7696 14.06C46.5027 14.9029 46.5027 16.1571 45.7696 17Z" fill="#696871"/>
<path fill-rule="evenodd" clip-rule="evenodd" d="M57.9897 12.1601C57.9897 11.9701 57.8997 11.8701 57.7097 11.8701L56.0497 11.8801C55.9719 11.8735 55.8951 11.9023 55.8409 11.9585C55.7866 12.0148 55.7604 12.0925 55.7697 12.1701V12.3301C55.1595 11.8633 54.4077 11.6198 53.6397 11.6401C52.5862 11.6025 51.5621 11.9919 50.7997 12.7201C49.3011 14.2704 49.3011 16.7297 50.7997 18.2801C51.5586 19.0148 52.5842 19.4084 53.6397 19.3701C54.3861 19.3913 55.1182 19.1625 55.7197 18.7201V19.3501C55.7401 19.8134 55.5704 20.2649 55.2497 20.6001C54.8989 20.9203 54.434 21.086 53.9597 21.0601C53.5706 21.0679 53.1856 20.9785 52.8397 20.8001C52.5559 20.6466 52.3387 20.3938 52.2297 20.0901C52.1747 19.9551 52.0454 19.865 51.8997 19.8601H50.2197C49.9497 19.8601 49.9497 19.9501 49.9497 20.1501C50.0904 20.9694 50.5648 21.6937 51.2597 22.1501C52.0648 22.6719 53.0109 22.9338 53.9697 22.9001C55.0313 22.9468 56.0712 22.5895 56.8797 21.9001C57.6175 21.254 58.0251 20.3101 57.9897 19.3301V12.1601ZM55.1997 17.0001C54.8531 17.3901 54.3513 17.6062 53.8297 17.5901C53.3026 17.6053 52.795 17.3898 52.4397 17.0001C52.0811 16.5883 51.8917 16.0559 51.9097 15.5101C51.8877 14.9588 52.0814 14.4208 52.4497 14.0101C52.8042 13.6192 53.3123 13.4035 53.8397 13.4201C54.3565 13.403 54.8543 13.6153 55.1997 14.0001C55.8836 14.8832 55.8836 16.117 55.1997 17.0001Z" fill="#696871"/>
<path fill-rule="evenodd" clip-rule="evenodd" d="M60.6198 18.3201C62.3639 19.7509 64.8757 19.7509 66.6198 18.3201V18.3101C68.1258 16.7394 68.1258 14.2607 66.6198 12.6901C64.8743 11.2631 62.3652 11.2631 60.6198 12.6901C59.1124 14.264 59.1124 16.7461 60.6198 18.3201ZM63.6298 17.55C63.0955 17.5665 62.577 17.3684 62.1898 17.0001C61.4694 16.1524 61.4694 14.9077 62.1898 14.0601C62.577 13.6917 63.0955 13.4936 63.6298 13.5101C64.1605 13.4963 64.675 13.6942 65.0598 14.0601C65.7801 14.9077 65.7801 16.1524 65.0598 17.0001C64.675 17.3659 64.1605 17.5638 63.6298 17.55Z" fill="#696871"/>
<path fill-rule="evenodd" clip-rule="evenodd" d="M69.4498 10.17C69.9966 10.6486 70.8131 10.6486 71.3598 10.17C71.6021 9.94142 71.7393 9.62308 71.7393 9.29002C71.7393 8.95695 71.6021 8.63861 71.3598 8.41002C70.8084 7.94422 70.0013 7.94422 69.4498 8.41002C69.2076 8.63861 69.0703 8.95695 69.0703 9.29002C69.0703 9.62308 69.2076 9.94142 69.4498 10.17ZM69.8998 18.91C70.3881 19.2504 70.9754 19.4192 71.5698 19.39C71.9607 19.3864 72.3486 19.3223 72.7198 19.2C72.7949 19.1957 72.8643 19.159 72.9104 19.0996C72.9564 19.0402 72.9744 18.9638 72.9598 18.89L72.8098 17.64C72.7998 17.46 72.6898 17.4 72.4898 17.4C72.3431 17.4386 72.1915 17.4555 72.0398 17.45C71.6998 17.45 71.5298 17.26 71.5298 16.88V12.16C71.5298 11.97 71.4398 11.87 71.2498 11.87H69.5698C69.4903 11.8602 69.4107 11.8875 69.354 11.9442C69.2973 12.0009 69.27 12.0805 69.2798 12.16V17.6C69.2622 18.1113 69.4933 18.5995 69.8998 18.91Z" fill="#696871"/>
<path fill-rule="evenodd" clip-rule="evenodd" d="M81.9996 12.71C81.2318 11.9778 80.1998 11.5881 79.1396 11.63C78.2139 11.6099 77.3206 11.9715 76.6696 12.63C76.3263 11.9592 75.6103 11.5636 74.8596 11.63C74.4916 11.6233 74.1256 11.6843 73.7796 11.81C73.6348 11.8521 73.5389 11.9896 73.5496 12.14V13.32C73.5496 13.48 73.6596 13.56 73.8796 13.56H74.2096C74.3723 13.5362 74.5366 13.5906 74.6528 13.7068C74.7691 13.8231 74.8235 13.9874 74.7996 14.15V22.35C74.7851 22.4279 74.8099 22.5079 74.8659 22.5638C74.9218 22.6198 75.0018 22.6446 75.0796 22.63H76.7596C76.9496 22.63 77.0496 22.54 77.0496 22.35V18.74C77.657 19.1785 78.3908 19.4067 79.1396 19.39C80.2019 19.4328 81.2353 19.0389 81.9996 18.3C83.4668 16.7255 83.4668 14.2846 81.9996 12.71ZM78.9596 17.5895C78.4385 17.5895 77.9399 17.3766 77.5796 17C77.2184 16.574 77.0294 16.0283 77.0496 15.47C77.0264 14.9114 77.2158 14.3646 77.5796 13.94C77.9399 13.5635 78.4385 13.3505 78.9596 13.3505C79.4808 13.3505 79.9793 13.5635 80.3396 13.94C80.7181 14.3573 80.9158 14.9074 80.8896 15.47C80.9126 16.0322 80.7152 16.5811 80.3396 17C79.9793 17.3766 79.4808 17.5895 78.9596 17.5895Z" fill="#696871"/>
<path d="M87.8198 19.39C86.9221 19.4269 86.032 19.2122 85.2498 18.77C84.6141 18.3871 84.1872 17.7357 84.0898 17C84.0898 16.8 84.1598 16.7 84.3798 16.7H85.8498C85.9924 16.7056 86.1199 16.7905 86.1798 16.92C86.3898 17.46 86.9398 17.73 87.8198 17.73C88.1268 17.744 88.4325 17.6822 88.7098 17.55C88.9049 17.4619 89.0356 17.2736 89.0498 17.06C89.0498 16.8 88.8898 16.62 88.5698 16.5C88.1903 16.3737 87.7979 16.2898 87.3998 16.25C86.9283 16.1966 86.4607 16.1131 85.9998 16C85.5517 15.8986 85.1442 15.6652 84.8298 15.33C84.4557 14.8695 84.2895 14.2743 84.371 13.6866C84.4526 13.0988 84.7745 12.5713 85.2598 12.23C85.9806 11.7709 86.8263 11.5472 87.6798 11.59C88.5062 11.5621 89.3238 11.7665 90.0398 12.18C90.6242 12.511 91.0283 13.0877 91.1398 13.75C91.1398 13.95 91.0498 14.05 90.8698 14.05H89.3898C89.2623 14.0576 89.1432 13.9861 89.0898 13.87C88.991 13.6332 88.8048 13.4434 88.5698 13.34C88.3048 13.2014 88.0088 13.1325 87.7098 13.14C87.4167 13.1241 87.1243 13.1825 86.8598 13.31C86.6692 13.3836 86.5425 13.5657 86.5398 13.77C86.553 14.0507 86.7477 14.2901 87.0198 14.36C87.4039 14.5047 87.8031 14.6054 88.2098 14.66C88.6775 14.7216 89.1415 14.8083 89.5998 14.92C90.048 15.0215 90.4555 15.2548 90.7698 15.59C91.1095 15.963 91.2859 16.4563 91.2598 16.96C91.2774 17.6632 90.9243 18.3239 90.3298 18.7C89.5827 19.1797 88.7072 19.4203 87.8198 19.39Z" fill="#696871"/>
<path d="M101.83 18.89C101.841 18.9617 101.823 19.035 101.78 19.0934C101.737 19.1517 101.672 19.1901 101.6 19.2C101.235 19.3192 100.854 19.3832 100.47 19.39C99.6969 19.47 98.9384 19.1401 98.4699 18.52C97.7635 19.1273 96.8502 19.4389 95.9199 19.39C95.0465 19.4302 94.1967 19.0998 93.5799 18.48C92.9679 17.8311 92.6465 16.9609 92.6899 16.07V12.16C92.6899 11.97 92.7799 11.87 92.9699 11.87H94.6499C94.8399 11.87 94.9299 11.97 94.9299 12.16V15.77C94.9116 16.2198 95.0654 16.6596 95.3599 17C95.6573 17.3155 96.0767 17.4869 96.5099 17.47C96.9526 17.4894 97.3847 17.3309 97.7099 17.03C98.018 16.7126 98.1809 16.2818 98.1599 15.84V12.16C98.1599 11.97 98.2499 11.87 98.4399 11.87H100.14C100.33 11.87 100.42 11.97 100.42 12.16V16.87C100.42 17.26 100.59 17.45 100.92 17.45C101.075 17.456 101.23 17.4391 101.38 17.4C101.457 17.3785 101.539 17.3933 101.603 17.4401C101.667 17.4869 101.707 17.5605 101.71 17.64L101.83 18.89Z" fill="#696871"/>
<path d="M117.72 18.89C117.738 18.9625 117.722 19.0393 117.678 19.0993C117.633 19.1593 117.564 19.1962 117.49 19.2C117.118 19.3209 116.73 19.3849 116.34 19.39C115.745 19.4207 115.157 19.2517 114.67 18.91C114.241 18.6127 113.99 18.1212 114 17.6V15.25C114.021 14.8016 113.87 14.3619 113.58 14.02C113.295 13.7035 112.884 13.531 112.46 13.55C112.076 13.5355 111.708 13.6977 111.46 13.99C111.196 14.3251 111.061 14.7439 111.08 15.17V18.86C111.08 19.05 110.99 19.15 110.8 19.15H109.11C109.03 19.1599 108.95 19.1325 108.894 19.0758C108.837 19.0192 108.81 18.9395 108.82 18.86V15.25C108.841 14.8065 108.703 14.3699 108.43 14.02C108.183 13.7224 107.816 13.5502 107.43 13.55C107.017 13.5334 106.617 13.6934 106.33 13.99C106.044 14.3144 105.896 14.7381 105.92 15.17V18.86C105.929 18.9395 105.902 19.0192 105.845 19.0758C105.789 19.1325 105.709 19.1599 105.63 19.15H104C103.81 19.15 103.72 19.05 103.72 18.86V14.15C103.743 13.9874 103.689 13.823 103.573 13.7068C103.457 13.5906 103.292 13.5361 103.13 13.56H102.8C102.58 13.56 102.47 13.48 102.47 13.32V12.14C102.459 11.9896 102.555 11.8521 102.7 11.81C103.045 11.6843 103.412 11.6233 103.78 11.63C104.5 11.5686 105.193 11.9264 105.56 12.55C106.242 11.9036 107.162 11.5703 108.1 11.63C109.013 11.5854 109.894 11.9791 110.47 12.69C111.14 11.9616 112.101 11.5726 113.09 11.63C113.972 11.5887 114.831 11.9187 115.46 12.54C116.074 13.1877 116.395 14.0587 116.35 14.95V16.88C116.35 17.26 116.52 17.45 116.84 17.45C116.995 17.4572 117.15 17.4404 117.3 17.4C117.506 17.4 117.616 17.48 117.63 17.64L117.72 18.89Z" fill="#696871"/>
<path fill-rule="evenodd" clip-rule="evenodd" d="M0.459805 10.57C1.97789 4.46836 7.45713 0.185303 13.7448 0.185303C20.0325 0.185303 25.5117 4.46836 27.0298 10.57H25.8298C23.8055 10.5402 21.8227 11.1452 20.1598 12.3C20.0638 12.3695 19.9636 12.433 19.8598 12.49H19.7198C19.616 12.433 19.5158 12.3695 19.4198 12.3C15.9883 9.99254 11.5013 9.99254 8.06981 12.3C7.97384 12.3695 7.87364 12.433 7.7698 12.49H7.6298C7.52597 12.433 7.42577 12.3695 7.3298 12.3C5.66694 11.1452 3.68412 10.5402 1.6598 10.57H0.459805ZM23.6698 16.84C24.2858 16.3603 25.0493 16.1093 25.8298 16.13H27.4398V12.92H25.8298C24.455 12.9034 23.1117 13.3313 21.9998 14.14C20.7155 15.0869 18.9641 15.0869 17.6798 14.14C15.3448 12.5146 12.2448 12.5146 9.9098 14.14C8.62546 15.0869 6.87415 15.0869 5.5898 14.14C4.4642 13.321 3.1016 12.8925 1.7098 12.92H0.0498047V16.13H1.6598C2.44031 16.1093 3.20379 16.3603 3.8198 16.84C6.15075 18.4666 9.24886 18.4666 11.5798 16.84C12.1966 16.3618 12.9595 16.111 13.7398 16.13C14.5206 16.1076 15.2846 16.3588 15.8998 16.84C18.2348 18.4655 21.3348 18.4655 23.6698 16.84ZM25.8298 21.87C25.0493 21.8493 24.2858 22.1003 23.6698 22.58C21.3348 24.2055 18.2348 24.2055 15.8998 22.58C15.2846 22.0988 14.5206 21.8476 13.7398 21.87C12.9595 21.851 12.1966 22.1018 11.5798 22.58C9.24886 24.2066 6.15075 24.2066 3.8198 22.58C3.20379 22.1003 2.44031 21.8493 1.6598 21.87H0.0498047V18.66H1.7098C3.1016 18.6325 4.4642 19.061 5.5898 19.88C6.87415 20.8269 8.62546 20.8269 9.9098 19.88C12.2448 18.2546 15.3448 18.2546 17.6798 19.88C18.9641 20.8269 20.7155 20.8269 21.9998 19.88C23.1117 19.0713 24.455 18.6434 25.8298 18.66H27.4398V21.87H25.8298Z" fill="#696871"/>
</svg>
