<svg width="200" height="41" viewBox="0 0 200 41" fill="none" xmlns="http://www.w3.org/2000/svg">
<path d="M30.0282 18.1925C28.8998 19.3277 28.336 20.9066 28.4899 22.4998L28.4635 22.4734C28.6217 24.3482 27.9455 26.1974 26.615 27.5279C25.2846 28.8583 23.4354 29.5346 21.5605 29.3763L21.587 29.4028C19.317 29.1915 17.1583 30.4262 16.1895 32.49C15.2208 34.5537 15.6501 37.0033 17.2628 38.6147C18.8756 40.226 21.3256 40.6531 23.3885 39.6825C25.4514 38.7118 26.6842 36.552 26.4708 34.2822L26.4988 34.3086C26.3405 32.4338 27.0168 30.5846 28.3472 29.2541C29.6776 27.9237 31.5269 27.2474 33.4017 27.4057L33.3738 27.3792C35.8686 27.6036 38.19 26.0824 38.9802 23.7055C39.7704 21.3285 38.8218 18.7202 36.6892 17.4063C34.5566 16.0923 31.8004 16.4178 30.0326 18.1925H30.0282Z" fill="#5454D4"/>
<path d="M19.1796 25.9351L19.1516 25.9086C20.7458 26.0692 22.3279 25.5055 23.4613 24.373C24.5947 23.2404 25.1596 21.6588 25.0002 20.0645L25.0281 20.091C24.8698 18.2161 25.5461 16.3669 26.8765 15.0364C28.207 13.706 30.0562 13.0297 31.9311 13.188L31.9031 13.1615C34.1733 13.3747 36.3334 12.1413 37.3036 10.0779C38.2738 8.01442 37.8458 5.56412 36.2334 3.95179C34.6211 2.33947 32.1708 1.91144 30.1074 2.88165C28.0439 3.85187 26.8105 6.01194 27.0237 8.28213L26.9972 8.25419C27.156 10.1291 26.4799 11.9787 25.1494 13.3093C23.8188 14.6398 21.9692 15.3159 20.0943 15.1571L20.1208 15.1851C18.5266 15.0244 16.9445 15.5882 15.8111 16.7207C14.6777 17.8532 14.1128 19.4349 14.2722 21.0292L14.2458 21.0027C14.4035 22.8774 13.727 24.7264 12.3968 26.0567C11.0665 27.387 9.21751 28.0634 7.34281 27.9057L7.36929 27.9321C5.0991 27.7189 2.93903 28.9523 1.96881 31.0158C0.998594 33.0793 1.42663 35.5295 3.03895 37.1419C4.65128 38.7542 7.10157 39.1822 9.16503 38.212C11.2285 37.2418 12.4619 35.0817 12.2487 32.8115L12.2766 32.838C12.1184 30.9632 12.7946 29.1139 14.1251 27.7835C15.4555 26.4531 17.3047 25.7768 19.1796 25.9351Z" fill="#FF7143"/>
<path d="M9.32353 22.9838C10.452 21.8487 11.0155 20.2695 10.8603 18.6764L10.8882 18.7029C10.7298 16.8275 11.4065 14.9777 12.7376 13.6472C14.0687 12.3166 15.9188 11.6408 17.7941 11.7999L17.7662 11.7735C20.0356 11.9861 22.1946 10.7528 23.1642 8.68997C24.1339 6.62717 23.7058 4.17784 22.0941 2.56611C20.4824 0.954378 18.0331 0.526374 15.9703 1.496C13.9074 2.46563 12.6742 4.62466 12.8868 6.89405L12.8603 6.86758C13.0186 8.74241 12.3423 10.5917 11.0119 11.9221C9.68144 13.2525 7.83218 13.9288 5.95735 13.7705L5.98382 13.797C3.48912 13.5733 1.16818 15.0949 0.378454 17.4718C-0.411274 19.8488 0.537647 22.4567 2.67022 23.7704C4.8028 25.0841 7.55886 24.7583 9.32647 22.9838H9.32353Z" fill="#5454D4"/>
<path d="M54.8779 8.31616H59.2456V29.5706H54.8779V8.31616Z" fill="#19191B"/>
<path fill-rule="evenodd" clip-rule="evenodd" d="M66.4611 15.1418C63.5787 16.3458 61.7067 19.1689 61.7192 22.2926C61.7041 24.3408 62.5132 26.3091 63.9644 27.7546C65.4157 29.2 67.3872 30.0012 69.4354 29.9779C72.5591 29.9778 75.3746 28.0945 76.5671 25.2074C77.7596 22.3202 77.0937 18.999 74.8805 16.7946C72.6673 14.5902 69.3434 13.9377 66.4611 15.1418ZM69.3734 19.0358C71.2112 19.0019 72.7331 20.4551 72.7839 22.2926C72.8335 23.2035 72.4999 24.0936 71.8639 24.7475C71.2278 25.4014 70.3473 25.7596 69.4354 25.7352C67.5973 25.7353 66.1023 24.2543 66.0853 22.4162C66.0683 20.5782 67.5355 19.0697 69.3734 19.0358Z" fill="#19191B"/>
<path fill-rule="evenodd" clip-rule="evenodd" d="M94.5589 28.8367V15.0132L90.3074 15.0102V16.4955C89.2703 15.2265 87.693 14.5243 86.0559 14.6029C82.0626 14.7288 78.8906 18.0024 78.8906 21.9977C78.8906 25.993 82.0626 29.2666 86.0559 29.3926C87.693 29.4711 89.2703 28.769 90.3074 27.4999V28.8308C90.3805 29.7089 90.0506 30.5726 89.4108 31.1784C88.771 31.7842 87.8905 32.0665 87.0177 31.9455C85.6371 32.0864 84.3141 31.3555 83.6986 30.1117L79.9721 32.2661C81.43 34.6415 84.0928 36.0035 86.8721 35.7955C90.7442 35.7955 94.5589 33.7279 94.5589 28.8367ZM88.2335 18.6355C89.5473 19.228 90.3689 20.5599 90.3089 21.9999C90.3361 22.9298 89.9688 23.8278 89.2979 24.4721C88.6269 25.1164 87.7148 25.4471 86.7868 25.3823C85.3455 25.384 84.048 24.5092 83.5091 23.1725C82.9702 21.8357 83.2983 20.3056 84.3379 19.3072C85.3774 18.3089 86.9196 18.043 88.2335 18.6355Z" fill="#19191B"/>
<path fill-rule="evenodd" clip-rule="evenodd" d="M101.774 15.1418C98.892 16.3458 97.0199 19.1689 97.0324 22.2926C97.0173 24.3408 97.8264 26.3091 99.2777 27.7546C100.729 29.2 102.7 30.0012 104.749 29.9779C107.872 29.9778 110.688 28.0945 111.88 25.2074C113.073 22.3202 112.407 18.999 110.194 16.7946C107.981 14.5902 104.657 13.9377 101.774 15.1418ZM104.687 19.0358C106.524 19.0019 108.046 20.4551 108.097 22.2926C108.147 23.2035 107.813 24.0936 107.177 24.7475C106.541 25.4014 105.661 25.7596 104.749 25.7352C102.91 25.7353 101.416 24.2543 101.399 22.4162C101.382 20.5782 102.849 19.0697 104.687 19.0358Z" fill="#19191B"/>
<path fill-rule="evenodd" clip-rule="evenodd" d="M116.119 8.69065C115.14 9.09626 114.501 10.0518 114.501 11.1118C114.516 12.5531 115.681 13.718 117.122 13.7323C118.182 13.7323 119.138 13.0939 119.543 12.1146C119.949 11.1354 119.725 10.0082 118.975 9.25872C118.226 8.50924 117.098 8.28503 116.119 8.69065ZM119.312 15.0132H114.943L114.937 29.572H119.312V15.0132Z" fill="#19191B"/>
<path fill-rule="evenodd" clip-rule="evenodd" d="M136.289 27.5822C137.595 26.1397 138.273 24.2359 138.171 22.2925C138.273 20.3489 137.597 18.4445 136.29 17.0015C134.984 15.5586 133.156 14.6963 131.212 14.6058C129.573 14.5164 127.981 15.1681 126.875 16.3808V15.0131H122.507V35.394H126.875V28.2014C127.98 29.415 129.573 30.0673 131.212 29.9778C133.156 29.887 134.983 29.0247 136.289 27.5822ZM130.281 18.9151C132.183 18.8833 133.755 20.3909 133.803 22.2925C133.869 23.2376 133.528 24.1659 132.867 24.8441C132.205 25.5224 131.286 25.8861 130.34 25.844C128.437 25.8442 126.891 24.3107 126.875 22.4085C126.859 20.5063 128.379 18.9469 130.281 18.9151Z" fill="#19191B"/>
<path d="M151.649 25.2029C151.649 28.5514 148.738 29.9779 145.594 29.9779C142.995 30.2134 140.515 28.8407 139.334 26.5132L143.118 24.3588C143.433 25.4423 144.463 26.1582 145.588 26.0764C146.635 26.0764 147.16 25.7559 147.16 25.175C147.16 23.572 139.997 24.4176 139.997 19.3809C139.997 16.2059 142.677 14.6059 145.705 14.6059C148.023 14.5325 150.198 15.7258 151.381 17.7206L147.655 19.7294C147.321 18.9498 146.553 18.4455 145.705 18.4485C144.947 18.4485 144.481 18.7426 144.481 19.2632C144.487 20.9235 151.649 19.8162 151.649 25.2029Z" fill="#19191B"/>
<path d="M167.603 15.0132V29.572H163.235V28.2029C162.213 29.4284 160.665 30.0891 159.074 29.9794C156.132 29.9794 153.632 27.8838 153.632 23.9499V15.0132H158V23.3102C157.926 24.0121 158.165 24.7109 158.653 25.2208C159.14 25.7307 159.828 26.0001 160.532 25.9573C162.134 25.9573 163.24 25.0264 163.24 22.9588V15.0176L167.603 15.0132Z" fill="#19191B"/>
<path d="M192.647 20.6323V29.5705H188.279V21.0102C188.279 19.5543 187.581 18.6235 186.184 18.6235C184.728 18.6235 183.912 19.6426 183.912 21.3602V29.5705H179.545V21.0102C179.545 19.5543 178.847 18.6235 177.448 18.6235C175.992 18.6235 175.178 19.6426 175.178 21.3602V29.5705H170.81V15.0117H175.178V16.3499C176.098 15.1436 177.567 14.4863 179.079 14.6043C180.599 14.53 182.047 15.2591 182.892 16.5249C183.876 15.2017 185.471 14.4764 187.114 14.6043C190.457 14.6058 192.647 16.9926 192.647 20.6323Z" fill="#19191B"/>
<path d="M196.341 14.9235C198.131 14.9235 199.582 13.4724 199.582 11.6823C199.582 9.89229 198.131 8.44116 196.341 8.44116C194.551 8.44116 193.1 9.89229 193.1 11.6823C193.1 13.4724 194.551 14.9235 196.341 14.9235Z" fill="#19191B"/>
</svg>
